<mxfile host="drawio-plugin" modified="2022-04-12T13:50:40.707Z" agent="5.0 (X11; Linux x86_64) AppleWebKit/537.36 (KHTML, like Gecko) Chrome/97.0.4692.45 Safari/537.36" etag="jM5i89_Kj8cBmBjGqg2A" version="15.5.4" type="embed"><diagram id="N1yLS9yi53JUy_WtfEQI" name="Page-1"><mxGraphModel dx="6542" dy="1205" grid="1" gridSize="10" guides="1" tooltips="1" connect="1" arrows="1" fold="1" page="1" pageScale="1" pageWidth="827" pageHeight="1169" math="0" shadow="0"><root><mxCell id="0"/><mxCell id="1" parent="0"/><mxCell id="2" value="HttpServlet" style="swimlane;fontStyle=1;align=center;verticalAlign=top;childLayout=stackLayout;horizontal=1;startSize=26;horizontalStack=0;resizeParent=1;resizeParentMax=0;resizeLast=0;collapsible=1;marginBottom=0;" parent="1" vertex="1"><mxGeometry x="-2374" y="690" width="160" height="30" as="geometry"/></mxCell><mxCell id="3" value="UsuarioServlet" style="swimlane;fontStyle=1;align=center;verticalAlign=top;childLayout=stackLayout;horizontal=1;startSize=26;horizontalStack=0;resizeParent=1;resizeParentMax=0;resizeLast=0;collapsible=1;marginBottom=0;" parent="1" vertex="1"><mxGeometry x="-2744" y="820" width="160" height="30" as="geometry"/></mxCell><mxCell id="4" value="TopUsuariosServlet" style="swimlane;fontStyle=1;align=center;verticalAlign=top;childLayout=stackLayout;horizontal=1;startSize=26;horizontalStack=0;resizeParent=1;resizeParentMax=0;resizeLast=0;collapsible=1;marginBottom=0;" parent="1" vertex="1"><mxGeometry x="-1844" y="820" width="160" height="30" as="geometry"/></mxCell><mxCell id="5" value="DirectorioServlet" style="swimlane;fontStyle=1;align=center;verticalAlign=top;childLayout=stackLayout;horizontal=1;startSize=26;horizontalStack=0;resizeParent=1;resizeParentMax=0;resizeLast=0;collapsible=1;marginBottom=0;" parent="1" vertex="1"><mxGeometry x="-2384" y="820" width="160" height="30" as="geometry"/></mxCell><mxCell id="6" value="ComentarioServlet" style="swimlane;fontStyle=1;align=center;verticalAlign=top;childLayout=stackLayout;horizontal=1;startSize=26;horizontalStack=0;resizeParent=1;resizeParentMax=0;resizeLast=0;collapsible=1;marginBottom=0;" parent="1" vertex="1"><mxGeometry x="-2204" y="820" width="160" height="30" as="geometry"/></mxCell><mxCell id="7" value="CatedraServlet" style="swimlane;fontStyle=1;align=center;verticalAlign=top;childLayout=stackLayout;horizontal=1;startSize=26;horizontalStack=0;resizeParent=1;resizeParentMax=0;resizeLast=0;collapsible=1;marginBottom=0;" parent="1" vertex="1"><mxGeometry x="-2024" y="820" width="160" height="30" as="geometry"/></mxCell><mxCell id="8" value="CarpetaServlet" style="swimlane;fontStyle=1;align=center;verticalAlign=top;childLayout=stackLayout;horizontal=1;startSize=0;horizontalStack=0;resizeParent=1;resizeParentMax=0;resizeLast=0;collapsible=1;marginBottom=0;" parent="1" vertex="1"><mxGeometry x="-2564" y="820" width="160" height="30" as="geometry"/></mxCell><mxCell id="10" value="ArchivoServlet" style="swimlane;fontStyle=1;align=center;verticalAlign=top;childLayout=stackLayout;horizontal=1;startSize=26;horizontalStack=0;resizeParent=1;resizeParentMax=0;resizeLast=0;collapsible=1;marginBottom=0;" parent="1" vertex="1"><mxGeometry x="-2924" y="820" width="160" height="30" as="geometry"/></mxCell><mxCell id="11" style="edgeStyle=none;html=1;endArrow=block;endFill=1;entryX=0;entryY=1;entryDx=0;entryDy=0;exitX=0.5;exitY=0;exitDx=0;exitDy=0;" parent="1" source="10" target="2" edge="1"><mxGeometry relative="1" as="geometry"><mxPoint x="-2714.180412371134" y="1060" as="sourcePoint"/><mxPoint x="-2691.5" y="980" as="targetPoint"/></mxGeometry></mxCell><mxCell id="12" style="edgeStyle=none;html=1;endArrow=block;endFill=1;entryX=0.25;entryY=1;entryDx=0;entryDy=0;exitX=0.5;exitY=0;exitDx=0;exitDy=0;" parent="1" source="3" target="2" edge="1"><mxGeometry relative="1" as="geometry"><mxPoint x="-2704.180412371134" y="1070" as="sourcePoint"/><mxPoint x="-2681.5" y="990" as="targetPoint"/></mxGeometry></mxCell><mxCell id="13" style="edgeStyle=none;html=1;endArrow=block;endFill=1;entryX=0.5;entryY=1;entryDx=0;entryDy=0;exitX=0.5;exitY=0;exitDx=0;exitDy=0;" parent="1" source="8" target="2" edge="1"><mxGeometry relative="1" as="geometry"><mxPoint x="-2694.180412371134" y="1080" as="sourcePoint"/><mxPoint x="-2671.5" y="1000" as="targetPoint"/></mxGeometry></mxCell><mxCell id="14" style="edgeStyle=none;html=1;endArrow=block;endFill=1;entryX=0.5;entryY=1;entryDx=0;entryDy=0;exitX=0.5;exitY=0;exitDx=0;exitDy=0;" parent="1" source="5" target="2" edge="1"><mxGeometry relative="1" as="geometry"><mxPoint x="-2684.180412371134" y="1090" as="sourcePoint"/><mxPoint x="-2661.5" y="1010" as="targetPoint"/></mxGeometry></mxCell><mxCell id="15" style="edgeStyle=none;html=1;endArrow=block;endFill=1;entryX=0.5;entryY=1;entryDx=0;entryDy=0;exitX=0.5;exitY=0;exitDx=0;exitDy=0;" parent="1" source="6" target="2" edge="1"><mxGeometry relative="1" as="geometry"><mxPoint x="-2674.180412371134" y="1100" as="sourcePoint"/><mxPoint x="-2651.5" y="1020" as="targetPoint"/></mxGeometry></mxCell><mxCell id="16" style="edgeStyle=none;html=1;endArrow=block;endFill=1;entryX=0.75;entryY=1;entryDx=0;entryDy=0;exitX=0.5;exitY=0;exitDx=0;exitDy=0;" parent="1" source="7" target="2" edge="1"><mxGeometry relative="1" as="geometry"><mxPoint x="-2664.180412371134" y="1110" as="sourcePoint"/><mxPoint x="-2641.5" y="1030" as="targetPoint"/></mxGeometry></mxCell><mxCell id="17" style="edgeStyle=none;html=1;endArrow=block;endFill=1;entryX=1;entryY=1;entryDx=0;entryDy=0;exitX=0.5;exitY=0;exitDx=0;exitDy=0;" parent="1" source="4" target="2" edge="1"><mxGeometry relative="1" as="geometry"><mxPoint x="-2114" y="830" as="sourcePoint"/><mxPoint x="-2284" y="730" as="targetPoint"/></mxGeometry></mxCell><mxCell id="20" value="HttpFilter" style="swimlane;fontStyle=1;align=center;verticalAlign=top;childLayout=stackLayout;horizontal=1;startSize=26;horizontalStack=0;resizeParent=1;resizeParentMax=0;resizeLast=0;collapsible=1;marginBottom=0;" parent="1" vertex="1"><mxGeometry x="-2374" y="120" width="160" height="30" as="geometry"/></mxCell><mxCell id="21" value="UsuarioFilter" style="swimlane;fontStyle=1;align=center;verticalAlign=top;childLayout=stackLayout;horizontal=1;startSize=26;horizontalStack=0;resizeParent=1;resizeParentMax=0;resizeLast=0;collapsible=1;marginBottom=0;" parent="1" vertex="1"><mxGeometry x="-2744" y="250" width="160" height="30" as="geometry"/></mxCell><mxCell id="22" value="ArchivoFuenteFilter" style="swimlane;fontStyle=1;align=center;verticalAlign=top;childLayout=stackLayout;horizontal=1;startSize=26;horizontalStack=0;resizeParent=1;resizeParentMax=0;resizeLast=0;collapsible=1;marginBottom=0;" parent="1" vertex="1"><mxGeometry x="-2374" y="250" width="160" height="30" as="geometry"/></mxCell><mxCell id="24" value="ComentarioFilter" style="swimlane;fontStyle=1;align=center;verticalAlign=top;childLayout=stackLayout;horizontal=1;startSize=26;horizontalStack=0;resizeParent=1;resizeParentMax=0;resizeLast=0;collapsible=1;marginBottom=0;" parent="1" vertex="1"><mxGeometry x="-2204" y="250" width="160" height="30" as="geometry"/></mxCell><mxCell id="25" value="CatedraFilter" style="swimlane;fontStyle=1;align=center;verticalAlign=top;childLayout=stackLayout;horizontal=1;startSize=26;horizontalStack=0;resizeParent=1;resizeParentMax=0;resizeLast=0;collapsible=1;marginBottom=0;" parent="1" vertex="1"><mxGeometry x="-2024" y="250" width="160" height="30" as="geometry"/></mxCell><mxCell id="26" value="CarpetaFiltert" style="swimlane;fontStyle=1;align=center;verticalAlign=top;childLayout=stackLayout;horizontal=1;startSize=0;horizontalStack=0;resizeParent=1;resizeParentMax=0;resizeLast=0;collapsible=1;marginBottom=0;" parent="1" vertex="1"><mxGeometry x="-2564" y="250" width="160" height="30" as="geometry"/></mxCell><mxCell id="27" value="ArchivoFilter" style="swimlane;fontStyle=1;align=center;verticalAlign=top;childLayout=stackLayout;horizontal=1;startSize=26;horizontalStack=0;resizeParent=1;resizeParentMax=0;resizeLast=0;collapsible=1;marginBottom=0;" parent="1" vertex="1"><mxGeometry x="-2924" y="250" width="160" height="30" as="geometry"/></mxCell><mxCell id="28" style="edgeStyle=none;html=1;endArrow=block;endFill=1;entryX=0;entryY=1;entryDx=0;entryDy=0;exitX=0.5;exitY=0;exitDx=0;exitDy=0;" parent="1" source="27" target="20" edge="1"><mxGeometry relative="1" as="geometry"><mxPoint x="-2714.180412371134" y="490" as="sourcePoint"/><mxPoint x="-2691.5" y="410" as="targetPoint"/></mxGeometry></mxCell><mxCell id="29" style="edgeStyle=none;html=1;endArrow=block;endFill=1;entryX=0.25;entryY=1;entryDx=0;entryDy=0;exitX=0.5;exitY=0;exitDx=0;exitDy=0;" parent="1" source="21" target="20" edge="1"><mxGeometry relative="1" as="geometry"><mxPoint x="-2704.180412371134" y="500" as="sourcePoint"/><mxPoint x="-2681.5" y="420" as="targetPoint"/></mxGeometry></mxCell><mxCell id="30" style="edgeStyle=none;html=1;endArrow=block;endFill=1;entryX=0.5;entryY=1;entryDx=0;entryDy=0;exitX=0.5;exitY=0;exitDx=0;exitDy=0;" parent="1" source="26" target="20" edge="1"><mxGeometry relative="1" as="geometry"><mxPoint x="-2694.180412371134" y="510" as="sourcePoint"/><mxPoint x="-2671.5" y="430" as="targetPoint"/></mxGeometry></mxCell><mxCell id="31" style="edgeStyle=none;html=1;endArrow=block;endFill=1;entryX=0.5;entryY=1;entryDx=0;entryDy=0;exitX=0.5;exitY=0;exitDx=0;exitDy=0;" parent="1" target="20" edge="1"><mxGeometry relative="1" as="geometry"><mxPoint x="-2304" y="250" as="sourcePoint"/><mxPoint x="-2661.5" y="440" as="targetPoint"/></mxGeometry></mxCell><mxCell id="32" style="edgeStyle=none;html=1;endArrow=block;endFill=1;entryX=0.5;entryY=1;entryDx=0;entryDy=0;exitX=0.5;exitY=0;exitDx=0;exitDy=0;" parent="1" source="24" target="20" edge="1"><mxGeometry relative="1" as="geometry"><mxPoint x="-2674.180412371134" y="530" as="sourcePoint"/><mxPoint x="-2651.5" y="450" as="targetPoint"/></mxGeometry></mxCell><mxCell id="33" style="edgeStyle=none;html=1;endArrow=block;endFill=1;entryX=0.75;entryY=1;entryDx=0;entryDy=0;exitX=0.5;exitY=0;exitDx=0;exitDy=0;" parent="1" source="25" target="20" edge="1"><mxGeometry relative="1" as="geometry"><mxPoint x="-2664.180412371134" y="540" as="sourcePoint"/><mxPoint x="-2641.5" y="460" as="targetPoint"/></mxGeometry></mxCell><mxCell id="35" value="ArchivoFuente" style="swimlane;fontStyle=1;align=center;verticalAlign=top;childLayout=stackLayout;horizontal=1;startSize=26;horizontalStack=0;resizeParent=1;resizeParentMax=0;resizeLast=0;collapsible=1;marginBottom=0;" parent="1" vertex="1"><mxGeometry x="-3104" y="820" width="160" height="30" as="geometry"/></mxCell><mxCell id="36" value="ArchivoFiltro" style="swimlane;fontStyle=1;align=center;verticalAlign=top;childLayout=stackLayout;horizontal=1;startSize=26;horizontalStack=0;resizeParent=1;resizeParentMax=0;resizeLast=0;collapsible=1;marginBottom=0;" parent="1" vertex="1"><mxGeometry x="-3284" y="820" width="160" height="30" as="geometry"/></mxCell><mxCell id="38" style="edgeStyle=none;html=1;endArrow=block;endFill=1;entryX=0;entryY=0.5;entryDx=0;entryDy=0;exitX=0.5;exitY=0;exitDx=0;exitDy=0;" parent="1" source="36" target="2" edge="1"><mxGeometry relative="1" as="geometry"><mxPoint x="-2834" y="830" as="sourcePoint"/><mxPoint x="-2364" y="730" as="targetPoint"/></mxGeometry></mxCell><mxCell id="39" style="edgeStyle=none;html=1;endArrow=block;endFill=1;entryX=-0.008;entryY=0.867;entryDx=0;entryDy=0;exitX=0.5;exitY=0;exitDx=0;exitDy=0;entryPerimeter=0;" parent="1" source="35" target="2" edge="1"><mxGeometry relative="1" as="geometry"><mxPoint x="-3194" y="830" as="sourcePoint"/><mxPoint x="-2364" y="715" as="targetPoint"/></mxGeometry></mxCell><mxCell id="40" value="RequestControl" style="swimlane;fontStyle=1;align=center;verticalAlign=top;childLayout=stackLayout;horizontal=1;startSize=26;horizontalStack=0;resizeParent=1;resizeParentMax=0;resizeLast=0;collapsible=1;marginBottom=0;" parent="1" vertex="1"><mxGeometry x="-4560" y="360" width="160" height="30" as="geometry"/></mxCell><mxCell id="41" value="JsonBody" style="swimlane;fontStyle=1;align=center;verticalAlign=top;childLayout=stackLayout;horizontal=1;startSize=26;horizontalStack=0;resizeParent=1;resizeParentMax=0;resizeLast=0;collapsible=1;marginBottom=0;" parent="1" vertex="1"><mxGeometry x="-4094" y="360" width="160" height="30" as="geometry"/></mxCell><mxCell id="43" value="JsonString" style="swimlane;fontStyle=0;align=center;verticalAlign=top;childLayout=stackLayout;horizontal=1;startSize=26;horizontalStack=0;resizeParent=1;resizeParentMax=0;resizeLast=0;collapsible=1;marginBottom=0;" parent="1" vertex="1"><mxGeometry x="-4210" y="450" width="160" height="30" as="geometry"/></mxCell><mxCell id="44" value="JsonBuffer" style="swimlane;fontStyle=1;align=center;verticalAlign=top;childLayout=stackLayout;horizontal=1;startSize=26;horizontalStack=0;resizeParent=1;resizeParentMax=0;resizeLast=0;collapsible=1;marginBottom=0;" parent="1" vertex="1"><mxGeometry x="-4010" y="450" width="160" height="30" as="geometry"/></mxCell><mxCell id="45" style="edgeStyle=none;html=1;endArrow=block;endFill=1;entryX=0.25;entryY=1;entryDx=0;entryDy=0;exitX=0.5;exitY=0;exitDx=0;exitDy=0;" parent="1" source="43" target="41" edge="1"><mxGeometry relative="1" as="geometry"><mxPoint x="-4524" y="650" as="sourcePoint"/><mxPoint x="-3694" y="535" as="targetPoint"/></mxGeometry></mxCell><mxCell id="46" style="edgeStyle=none;html=1;endArrow=block;endFill=1;entryX=0.75;entryY=1;entryDx=0;entryDy=0;exitX=0.5;exitY=0;exitDx=0;exitDy=0;" parent="1" source="44" target="41" edge="1"><mxGeometry relative="1" as="geometry"><mxPoint x="-4120" y="460" as="sourcePoint"/><mxPoint x="-4044" y="400" as="targetPoint"/></mxGeometry></mxCell></root></mxGraphModel></diagram></mxfile>